<svg id="visual" viewBox="0 0 900 600" width="900" height="600" xmlns="http://www.w3.org/2000/svg" xmlns:xlink="http://www.w3.org/1999/xlink" version="1.1"><g stroke-width="1" stroke-linejoin="bevel"><path d="M494 271L562 264L519 179Z" fill="#277297" stroke="#277297"></path><path d="M562 264L609 179L519 179Z" fill="#112e42" stroke="#112e42"></path><path d="M490 74L434 167L519 179Z" fill="#00101c" stroke="#00101c"></path><path d="M519 179L434 167L494 271Z" fill="#205a7a" stroke="#205a7a"></path><path d="M562 264L677 211L609 179Z" fill="#00101c" stroke="#00101c"></path><path d="M434 167L398 320L494 271Z" fill="#081a28" stroke="#081a28"></path><path d="M494 271L474 432L562 264Z" fill="#112e42" stroke="#112e42"></path><path d="M715 76L560 75L609 179Z" fill="#277297" stroke="#277297"></path><path d="M609 179L560 75L519 179Z" fill="#15384f" stroke="#15384f"></path><path d="M560 75L490 74L519 179Z" fill="#297ea6" stroke="#297ea6"></path><path d="M490 74L392 139L434 167Z" fill="#277297" stroke="#277297"></path><path d="M434 167L295 191L398 320Z" fill="#112e42" stroke="#112e42"></path><path d="M398 320L415 380L494 271Z" fill="#112e42" stroke="#112e42"></path><path d="M562 264L721 271L677 211Z" fill="#00101c" stroke="#00101c"></path><path d="M635 435L721 271L562 264Z" fill="#0c2435" stroke="#0c2435"></path><path d="M415 380L474 432L494 271Z" fill="#246688" stroke="#246688"></path><path d="M568 0L501 0L560 75Z" fill="#15384f" stroke="#15384f"></path><path d="M560 75L501 0L490 74Z" fill="#205a7a" stroke="#205a7a"></path><path d="M490 74L418 0L392 139Z" fill="#19435d" stroke="#19435d"></path><path d="M289 65L295 191L392 139Z" fill="#19435d" stroke="#19435d"></path><path d="M392 139L295 191L434 167Z" fill="#15384f" stroke="#15384f"></path><path d="M398 320L304 427L415 380Z" fill="#19435d" stroke="#19435d"></path><path d="M474 432L635 435L562 264Z" fill="#0c2435" stroke="#0c2435"></path><path d="M715 76L568 0L560 75Z" fill="#0c2435" stroke="#0c2435"></path><path d="M715 76L609 179L677 211Z" fill="#19435d" stroke="#19435d"></path><path d="M782 172L715 76L677 211Z" fill="#112e42" stroke="#112e42"></path><path d="M501 0L418 0L490 74Z" fill="#081a28" stroke="#081a28"></path><path d="M792 383L772 281L721 271Z" fill="#15384f" stroke="#15384f"></path><path d="M721 271L782 172L677 211Z" fill="#112e42" stroke="#112e42"></path><path d="M474 432L617 466L635 435Z" fill="#297ea6" stroke="#297ea6"></path><path d="M635 435L726 437L721 271Z" fill="#15384f" stroke="#15384f"></path><path d="M295 191L278 319L398 320Z" fill="#19435d" stroke="#19435d"></path><path d="M415 380L366 501L474 432Z" fill="#297ea6" stroke="#297ea6"></path><path d="M772 281L782 172L721 271Z" fill="#19435d" stroke="#19435d"></path><path d="M325 0L289 65L392 139Z" fill="#297ea6" stroke="#297ea6"></path><path d="M295 191L235 200L278 319Z" fill="#246688" stroke="#246688"></path><path d="M693 534L726 437L635 435Z" fill="#277297" stroke="#277297"></path><path d="M289 65L235 200L295 191Z" fill="#205a7a" stroke="#205a7a"></path><path d="M278 319L304 427L398 320Z" fill="#205a7a" stroke="#205a7a"></path><path d="M474 432L467 523L617 466Z" fill="#081a28" stroke="#081a28"></path><path d="M186 374L304 427L278 319Z" fill="#00101c" stroke="#00101c"></path><path d="M366 501L467 523L474 432Z" fill="#19435d" stroke="#19435d"></path><path d="M693 534L766 476L726 437Z" fill="#15384f" stroke="#15384f"></path><path d="M418 0L325 0L392 139Z" fill="#19435d" stroke="#19435d"></path><path d="M780 0L730 0L715 76Z" fill="#277297" stroke="#277297"></path><path d="M715 76L730 0L568 0Z" fill="#297ea6" stroke="#297ea6"></path><path d="M726 437L792 383L721 271Z" fill="#277297" stroke="#277297"></path><path d="M900 222L830 99L782 172Z" fill="#246688" stroke="#246688"></path><path d="M304 427L366 501L415 380Z" fill="#205a7a" stroke="#205a7a"></path><path d="M782 172L830 99L715 76Z" fill="#00101c" stroke="#00101c"></path><path d="M900 222L782 172L772 281Z" fill="#0c2435" stroke="#0c2435"></path><path d="M830 99L780 0L715 76Z" fill="#1d4e6b" stroke="#1d4e6b"></path><path d="M726 437L766 476L792 383Z" fill="#277297" stroke="#277297"></path><path d="M693 534L635 435L617 466Z" fill="#1d4e6b" stroke="#1d4e6b"></path><path d="M567 600L693 534L617 466Z" fill="#1d4e6b" stroke="#1d4e6b"></path><path d="M139 216L170 268L235 200Z" fill="#19435d" stroke="#19435d"></path><path d="M235 200L170 268L278 319Z" fill="#205a7a" stroke="#205a7a"></path><path d="M304 427L274 510L366 501Z" fill="#00101c" stroke="#00101c"></path><path d="M166 103L235 200L289 65Z" fill="#205a7a" stroke="#205a7a"></path><path d="M170 268L186 374L278 319Z" fill="#297ea6" stroke="#297ea6"></path><path d="M389 600L530 600L467 523Z" fill="#0c2435" stroke="#0c2435"></path><path d="M467 523L567 600L617 466Z" fill="#277297" stroke="#277297"></path><path d="M530 600L567 600L467 523Z" fill="#205a7a" stroke="#205a7a"></path><path d="M199 515L274 510L304 427Z" fill="#277297" stroke="#277297"></path><path d="M366 501L389 600L467 523Z" fill="#246688" stroke="#246688"></path><path d="M900 316L772 281L792 383Z" fill="#297ea6" stroke="#297ea6"></path><path d="M900 316L900 222L772 281Z" fill="#205a7a" stroke="#205a7a"></path><path d="M830 99L900 0L780 0Z" fill="#00101c" stroke="#00101c"></path><path d="M191 0L166 103L289 65Z" fill="#15384f" stroke="#15384f"></path><path d="M166 103L139 216L235 200Z" fill="#277297" stroke="#277297"></path><path d="M170 268L92 279L186 374Z" fill="#00101c" stroke="#00101c"></path><path d="M900 434L900 316L792 383Z" fill="#277297" stroke="#277297"></path><path d="M336 600L389 600L366 501Z" fill="#081a28" stroke="#081a28"></path><path d="M325 0L191 0L289 65Z" fill="#1d4e6b" stroke="#1d4e6b"></path><path d="M900 222L900 78L830 99Z" fill="#297ea6" stroke="#297ea6"></path><path d="M567 600L692 600L693 534Z" fill="#0c2435" stroke="#0c2435"></path><path d="M693 534L790 600L766 476Z" fill="#00101c" stroke="#00101c"></path><path d="M766 476L900 434L792 383Z" fill="#00101c" stroke="#00101c"></path><path d="M274 510L336 600L366 501Z" fill="#112e42" stroke="#112e42"></path><path d="M900 510L900 434L766 476Z" fill="#297ea6" stroke="#297ea6"></path><path d="M186 374L199 515L304 427Z" fill="#00101c" stroke="#00101c"></path><path d="M274 510L224 600L336 600Z" fill="#15384f" stroke="#15384f"></path><path d="M86 378L199 515L186 374Z" fill="#19435d" stroke="#19435d"></path><path d="M0 273L92 279L0 177Z" fill="#112e42" stroke="#112e42"></path><path d="M139 216L92 279L170 268Z" fill="#0c2435" stroke="#0c2435"></path><path d="M103 93L139 216L166 103Z" fill="#0c2435" stroke="#0c2435"></path><path d="M900 78L900 0L830 99Z" fill="#246688" stroke="#246688"></path><path d="M122 0L103 93L166 103Z" fill="#297ea6" stroke="#297ea6"></path><path d="M692 600L790 600L693 534Z" fill="#081a28" stroke="#081a28"></path><path d="M0 273L86 378L92 279Z" fill="#081a28" stroke="#081a28"></path><path d="M92 279L86 378L186 374Z" fill="#205a7a" stroke="#205a7a"></path><path d="M191 0L122 0L166 103Z" fill="#19435d" stroke="#19435d"></path><path d="M790 600L900 510L766 476Z" fill="#277297" stroke="#277297"></path><path d="M130 600L224 600L199 515Z" fill="#19435d" stroke="#19435d"></path><path d="M199 515L224 600L274 510Z" fill="#246688" stroke="#246688"></path><path d="M0 177L92 279L139 216Z" fill="#112e42" stroke="#112e42"></path><path d="M86 378L77 532L199 515Z" fill="#00101c" stroke="#00101c"></path><path d="M0 177L139 216L103 93Z" fill="#081a28" stroke="#081a28"></path><path d="M0 105L0 177L103 93Z" fill="#0c2435" stroke="#0c2435"></path><path d="M790 600L900 600L900 510Z" fill="#00101c" stroke="#00101c"></path><path d="M0 0L0 105L103 93Z" fill="#246688" stroke="#246688"></path><path d="M0 469L77 532L86 378Z" fill="#112e42" stroke="#112e42"></path><path d="M77 532L130 600L199 515Z" fill="#00101c" stroke="#00101c"></path><path d="M0 273L0 435L86 378Z" fill="#081a28" stroke="#081a28"></path><path d="M77 532L0 600L130 600Z" fill="#112e42" stroke="#112e42"></path><path d="M122 0L0 0L103 93Z" fill="#205a7a" stroke="#205a7a"></path><path d="M0 435L0 469L86 378Z" fill="#205a7a" stroke="#205a7a"></path><path d="M0 469L0 600L77 532Z" fill="#297ea6" stroke="#297ea6"></path></g></svg>